# xmcd
#
# Track frame offsets:
#	150
#	28056
#	42301
#	83939
#	98284
#	131284
#	159960
#	191573
#	217212
#	241057
#
# Disc length: 3625 seconds
#
# Revision: 1
# Processed by: cddbd v1.5.2PL0 Copyright (c) Steve Scherf et al.
# Submitted via: audiograbber 1.83.01
#
DISCID=780e270a
DTITLE=Grateful Dead - 72-07-18 Roosevelt Stadium, Jersey City NJ
DYEAR=1900
DGENRE=
TTITLE0=Bertha
TTITLE1=Me and My Uncle
TTITLE2=Bird Song
TTITLE3=Promised Land
TTITLE4=Sugaree
TTITLE5=Black Throated Wind
TTITLE6=China Cat Sunflower
TTITLE7=I Know You Rider
TTITLE8=Jack Straw
TTITLE9=Loser
EXTD=
EXTT0=
EXTT1=
EXTT2=
EXTT3=
EXTT4=
EXTT5=
EXTT6=
EXTT7=
EXTT8=
EXTT9=
PLAYORDER=
